<svg xmlns="http://www.w3.org/2000/svg" viewBox="0 0 248.78 248.78"><defs><style>.cls-1{fill:#f7f7f7;}.cls-2{fill:#2a2c34;}</style></defs><title>arrow_right_active</title><g id="Layer_2" data-name="Layer 2"><g id="Layer_1-2" data-name="Layer 1"><circle class="cls-1" cx="124.39" cy="124.39" r="124.39"/><path class="cls-2" d="M83.87,131.75h67.41L119,164.32a5,5,0,0,0,7.1,7.05l40.76-41.08h0a1.71,1.71,0,0,0,.11-.14,3.77,3.77,0,0,0,.5-.62,4,4,0,0,0,.25-.45c.07-.13.15-.26.21-.4a5.24,5.24,0,0,0,.2-.64c0-.1.06-.19.08-.29a5,5,0,0,0-1.37-4.53h0L125.72,82.41a5,5,0,0,0-7,7.1l32.49,32.24H83.87a5,5,0,0,0,0,10Z"/></g></g></svg>