<svg xmlns="http://www.w3.org/2000/svg" viewBox="0 0 248.78 248.78"><defs><style>.cls-1{fill:#fff;}.cls-2{fill:#999;}.cls-3{fill:#2a2c34;}</style></defs><title>arrow_left_active_border</title><g id="Layer_2" data-name="Layer 2"><g id="Layer_1-2" data-name="Layer 1"><circle class="cls-1" cx="124.39" cy="124.39" r="121.89"/><path class="cls-2" d="M124.39,5a119.39,119.39,0,0,1,84.42,203.81A119.39,119.39,0,1,1,40,40,118.61,118.61,0,0,1,124.39,5m0-5A124.39,124.39,0,1,0,248.78,124.39,124.39,124.39,0,0,0,124.39,0Z"/><path class="cls-3" d="M164.92,117H97.5l32.32-32.57a5,5,0,1,0-6.49-7.61,4.93,4.93,0,0,0-.6.61L82,118.49h0l-.11.13a5.9,5.9,0,0,0-.5.62c-.09.15-.17.3-.25.45a3.33,3.33,0,0,0-.4,1,1.31,1.31,0,0,0-.09.28A5,5,0,0,0,82,125.59h0l41.1,40.78a5,5,0,0,0,7.55-6.56,5.62,5.62,0,0,0-.55-.54L97.62,127h67.3a5,5,0,0,0,0-10Z"/></g></g></svg>