<svg xmlns="http://www.w3.org/2000/svg" viewBox="0 0 248.78 248.78"><defs><style>.cls-1{fill:#f7f7f7;}.cls-2{fill:#c5c5c5;}</style></defs><title>arrow_left_inactive</title><g id="Layer_2" data-name="Layer 2"><g id="Layer_1-2" data-name="Layer 1"><circle class="cls-1" cx="124.39" cy="124.39" r="124.39"/><path class="cls-2" d="M164.92,117H97.5l32.32-32.57a5,5,0,1,0-7.09-7L82,118.49v0h0l-.11.13a5.9,5.9,0,0,0-.5.62,5.05,5.05,0,0,0-.25.45,3.42,3.42,0,0,0-.4,1,2.29,2.29,0,0,0-.09.28A5,5,0,0,0,82,125.59h0l41.1,40.78a5,5,0,1,0,7-7.1L97.62,127h67.3a5,5,0,0,0,0-10Z"/></g></g></svg>