<svg xmlns="http://www.w3.org/2000/svg" xmlns:xlink="http://www.w3.org/1999/xlink" viewBox="0 0 124.24 95.62"><defs><style>.cls-1{fill:none;}.cls-2{clip-path:url(#clip-path);}.cls-3{fill:#064c76;}</style><clipPath id="clip-path" transform="translate(0)"><rect class="cls-1" width="124.24" height="95.62"/></clipPath></defs><title>contact</title><g id="Layer_2" data-name="Layer 2"><g id="Layer_1-2" data-name="Layer 1"><g class="cls-2"><path class="cls-3" d="M9.25,1.33l43.17,49a12.93,12.93,0,0,0,19.4,0L114.24,2.18a4.53,4.53,0,0,1,1.2-1A14.72,14.72,0,0,0,109.57,0H14.66A14.47,14.47,0,0,0,9,1.13c.07.07.15.12.22.2" transform="translate(0)"/><path class="cls-3" d="M122,6.87a4.55,4.55,0,0,1-.83,1.4L78.73,56.4a22.14,22.14,0,0,1-33.22,0L2.34,7.42a3.55,3.55,0,0,1-.23-.31A14.57,14.57,0,0,0,0,14.66V81A14.66,14.66,0,0,0,14.66,95.62h94.91A14.66,14.66,0,0,0,124.24,81V14.66A14.61,14.61,0,0,0,122,6.87" transform="translate(0)"/></g></g></g></svg>