<svg xmlns="http://www.w3.org/2000/svg" viewBox="0 0 512 512"><defs><style>.cls-1{fill:#39b54a;}</style></defs><title>face_smile</title><g id="Layer_2" data-name="Layer 2"><g id="Layer_1-2" data-name="Layer 1"><path class="cls-1" d="M0,256C0,114.6,114.6,0,256,0S512,114.6,512,256,397.4,512,256,512,0,397.4,0,256Zm164.1,69.5a16,16,0,0,0-24.2,21c22.2,25.6,61,53.5,115.2,53.5,56,0,94.7-27.9,117-53.5a16,16,0,1,0-24.2-21c-18,20.7-48.5,42.5-92.8,42.5-42.5,0-73.1-21.8-91-42.5ZM176.4,176a32,32,0,1,0,32,32A32,32,0,0,0,176.4,176Zm160,64a32,32,0,1,0-32-32A32,32,0,0,0,336.4,240Z"/></g></g></svg>