<svg xmlns="http://www.w3.org/2000/svg" viewBox="0 0 512 512"><defs><style>.cls-1{fill:#ed1c24;}</style></defs><title>face_frown</title><g id="Layer_2" data-name="Layer 2"><g id="Layer_1-2" data-name="Layer 1"><path class="cls-1" d="M0,256C0,114.6,114.6,0,256,0S512,114.6,512,256,397.4,512,256,512,0,397.4,0,256ZM159.3,388.7C171.5,349.4,209.9,320,256,320s84.5,29.4,96.7,68.7a16,16,0,1,0,30.6-9.4c-16.5-53.2-67.5-92.2-127.3-92.2s-110.8,39-127.3,92.2a16,16,0,1,0,30.6,9.4ZM176.4,176a32,32,0,1,0,32,32A32,32,0,0,0,176.4,176Zm160,64a32,32,0,1,0-32-32A32,32,0,0,0,336.4,240Z"/></g></g></svg>