<svg xmlns="http://www.w3.org/2000/svg" viewBox="0 0 162.95 169.06"><defs><style>.cls-1{fill:#064c76;}</style></defs><title>gallery</title><g id="Layer_2" data-name="Layer 2"><g id="Layer_1-2" data-name="Layer 1"><path class="cls-1" d="M153,10V84H98V10H153M163,0H88V94H163V0Z"/><path class="cls-1" d="M65,10V84H10V10H65M75,0H0V94H75V0Z"/><polygon class="cls-1" points="98 169.06 98 116.98 152.95 116.98 152.95 169.06 162.95 169.06 162.95 106.98 88 106.98 88 169.06 98 169.06"/><polygon class="cls-1" points="10 169.06 10 116.98 64.95 116.98 64.95 169.06 74.95 169.06 74.95 106.98 0 106.98 0 169.06 10 169.06"/></g></g></svg>