<?xml version="1.0" encoding="utf-8"?>
<!-- Generator: Adobe Illustrator 23.0.6, SVG Export Plug-In . SVG Version: 6.00 Build 0)  -->
<svg version="1.1" id="Layer_1" xmlns="http://www.w3.org/2000/svg" xmlns:xlink="http://www.w3.org/1999/xlink" x="0px" y="0px"
	 viewBox="0 0 425.8 61.2" style="enable-background:new 0 0 425.8 61.2;" xml:space="preserve">
<style type="text/css">
	.st0{fill:#FFFFFF;}
</style>
<title>logo_footer</title>
<g>
	<g id="Layer_1-2">
		<path class="st0" d="M30.8,18.1c-0.1-0.9-0.4-1.8-0.9-2.5c-0.5-0.8-1.2-1.5-1.9-2.1c-1.7-1.2-3.7-1.9-5.7-1.9
			c-0.9,0-1.8,0.1-2.7,0.3c-0.8,0.2-1.5,0.5-2.2,0.9c-0.6,0.4-1.1,1-1.5,1.6c-0.4,0.7-0.6,1.6-0.6,2.4c-0.1,1,0.2,1.9,0.7,2.8
			c0.5,0.7,1.2,1.3,1.9,1.7c0.8,0.4,1.7,0.8,2.6,1c1,0.3,1.9,0.5,2.8,0.8l10.6,3.5c1.5,0.5,2.8,1.2,4.1,2.1c1.3,0.9,2.4,2,3.3,3.3
			c1,1.3,1.7,2.8,2.2,4.4c0.6,1.8,0.8,3.7,0.8,5.6c0,2.7-0.5,5.3-1.5,7.7c-1,2.3-2.5,4.3-4.4,6c-2,1.7-4.2,3-6.7,3.9
			c-2.8,0.9-5.7,1.4-8.7,1.4c-2.1,0-4.3-0.2-6.3-0.8c-1.9-0.5-3.7-1.2-5.4-2.2c-1.6-0.9-3-2.1-4.3-3.4C5.6,53.5,4.7,52,4,50.4H0
			V38.8h13.9v2.4c0,1.1,0.2,2.2,0.6,3.2c0.4,1,0.9,1.8,1.7,2.5c0.8,0.8,1.8,1.3,2.8,1.7c1.3,0.4,2.6,0.6,4,0.6
			c1.9,0.1,3.8-0.4,5.3-1.6c1.2-1.1,1.9-2.8,1.8-4.4c0-0.9-0.2-1.7-0.6-2.4c-0.4-0.7-1-1.2-1.6-1.7c-0.7-0.5-1.4-0.8-2.2-1.1
			c-0.8-0.3-1.6-0.6-2.4-0.8l-8.8-2.8c-1.7-0.5-3.3-1.2-4.8-2.2c-1.5-0.9-2.9-2.1-4.1-3.5c-1.2-1.4-2.2-3.1-2.8-4.9
			c-0.8-2-1.1-4.2-1.1-6.4c0-2.6,0.5-5.1,1.6-7.4c1-2.1,2.5-4,4.3-5.5c2-1.5,4.2-2.7,6.6-3.4C16.6,0.4,19.4,0,22.2,0
			c2.2,0,4.5,0.3,6.6,0.8C30.7,1.3,32.5,2,34.2,3c1.5,0.9,2.9,1.9,4.1,3.2c1,1.1,1.9,2.3,2.5,3.7h3.8v11.6H30.8V18.1z"/>
		<polygon class="st0" points="64.5,49.5 70.6,49.5 70.6,11.9 63.5,11.9 63.5,19.4 51,19.4 51,1.7 103.9,1.7 103.9,19.4 91.3,19.4 
			91.3,11.9 83.3,11.9 83.3,49.5 89.5,49.5 89.5,60 64.5,60 		"/>
		<path class="st0" d="M139.5,49.5h5.8l-2.6-8.4h-17.9l-2.6,8.4h6.1V60h-22.1V49.5h4.3l15.9-47.7h15.4l15.5,47.7h4.2V60h-22.1V49.5z
			 M127.8,31.2h11.8l-5.9-18.9L127.8,31.2z"/>
		<polygon class="st0" points="170.8,49.5 176.2,49.5 176.2,12.3 170.8,12.3 170.8,1.7 194.8,1.7 211.9,43.8 227.9,1.7 252.2,1.7 
			252.2,12.3 246.8,12.3 246.8,49.5 252.1,49.5 252.1,60 230.3,60 230.3,49.5 234.3,49.5 234.3,15.9 216.9,59.3 206.1,59.3 
			188.3,17.1 188.3,49.5 192.7,49.5 192.7,60 170.8,60 		"/>
		<path class="st0" d="M264.8,1.7h26.9c2.8,0,5.6,0.4,8.3,1.4c2.4,0.9,4.6,2.1,6.5,3.8c1.8,1.5,3.2,3.4,4.3,5.5c1,2,1.5,4.2,1.5,6.5
			c0,2.6-0.4,5.2-1.2,7.6c-0.8,2.3-2.1,4.4-3.8,6.2c-1.8,1.8-4,3.2-6.4,4.1c-2.9,1.1-6.1,1.6-9.2,1.5h-8.1v11.1h5.3V60h-24.2V49.5h6
			V12.3h-6V1.7z M283.6,12.3v15.6h5.3c2.5,0.1,4.9-0.5,7-1.8c1.7-1.2,2.6-3.2,2.6-5.8c0.1-2.2-0.8-4.4-2.4-5.8
			c-1.6-1.4-4-2.1-7.1-2.1H283.6z"/>
		<polygon class="st0" points="322.5,1.7 368.9,1.7 368.9,21.6 356.3,21.6 356.3,13.3 341.4,13.3 341.4,24.8 353,24.8 353,36 
			341.4,36 341.4,49.5 356.3,49.5 356.3,39.1 368.9,39.1 368.9,60 322.5,60 322.5,49.5 328.6,49.5 328.6,13.3 322.5,13.3 		"/>
		<polygon class="st0" points="379.5,1.7 425.8,1.7 425.8,21.6 413.3,21.6 413.3,13.3 398.4,13.3 398.4,24.8 409.9,24.8 409.9,36 
			398.4,36 398.4,49.5 413.3,49.5 413.3,39.1 425.8,39.1 425.8,60 379.5,60 379.5,49.5 385.6,49.5 385.6,13.3 379.5,13.3 		"/>
	</g>
</g>
</svg>
