<svg xmlns="http://www.w3.org/2000/svg" viewBox="0 0 159.1 159.2"><defs><style>.cls-1{fill:#064c76;}</style></defs><title>logo</title><g id="Layer_2" data-name="Layer 2"><g id="Layer_1-2" data-name="Layer 1"><path class="cls-1" d="M79.53,31.56c-19.06,0-35.37,10.87-42,26.25h84.05c-6.66-15.38-23-26.25-42-26.25"/><path class="cls-1" d="M116.31,38.55A54.33,54.33,0,0,0,79.55,24.68,54.33,54.33,0,0,0,42.79,38.55,46.44,46.44,0,0,0,29.93,57.81h4.29C40.7,40.7,58.57,28.37,79.55,28.37s38.84,12.33,45.33,29.44h4.29a46.63,46.63,0,0,0-12.86-19.26"/><path class="cls-1" d="M28.32,75.05a2,2,0,0,0-.27-.74,2.1,2.1,0,0,0-.56-.59,3,3,0,0,0-.77-.4,2.74,2.74,0,0,0-.9-.15,3.29,3.29,0,0,0-.79.09,1.78,1.78,0,0,0-.64.28A1.32,1.32,0,0,0,24,74a1.41,1.41,0,0,0-.16.69,1.29,1.29,0,0,0,.22.8,1.73,1.73,0,0,0,.55.49,4,4,0,0,0,.76.3c.27.07.54.15.8.24l3.07,1a5,5,0,0,1,1.19.61,4,4,0,0,1,1,1A4.32,4.32,0,0,1,32,80.41,5.13,5.13,0,0,1,32.23,82a5.34,5.34,0,0,1-.46,2.24A5,5,0,0,1,30.51,86a6,6,0,0,1-2,1.13,7.7,7.7,0,0,1-2.52.4,7.17,7.17,0,0,1-1.83-.22,5.68,5.68,0,0,1-1.58-.63,4.88,4.88,0,0,1-1.25-1,4.15,4.15,0,0,1-.84-1.3H19.38V81.05h4v.7a2.51,2.51,0,0,0,.16.92,2,2,0,0,0,1.3,1.22,3.35,3.35,0,0,0,1.15.18,2.24,2.24,0,0,0,1.53-.47,1.62,1.62,0,0,0,.53-1.29,1.28,1.28,0,0,0-.19-.7,1.65,1.65,0,0,0-.47-.48,3.3,3.3,0,0,0-.65-.33l-.7-.25-2.56-.82a6.48,6.48,0,0,1-1.4-.63,4.76,4.76,0,0,1-1.19-1,4.66,4.66,0,0,1-.83-1.42,5.21,5.21,0,0,1-.31-1.84,4.92,4.92,0,0,1,.45-2.15,4.42,4.42,0,0,1,1.25-1.59,5.57,5.57,0,0,1,1.91-1,8,8,0,0,1,2.42-.34,7.32,7.32,0,0,1,1.92.24,7.05,7.05,0,0,1,1.58.64,5.3,5.3,0,0,1,1.18.92,4.25,4.25,0,0,1,.74,1.08h1.12V76h-4Z"/><polygon class="cls-1" points="38.12 84.14 39.88 84.14 39.88 73.24 37.82 73.24 37.82 75.43 34.18 75.43 34.18 70.28 49.57 70.28 49.57 75.43 45.91 75.43 45.91 73.24 43.58 73.24 43.58 84.14 45.37 84.14 45.37 87.2 38.12 87.2 38.12 84.14"/><path class="cls-1" d="M58.91,84.14H60.6l-.76-2.43h-5.2l-.76,2.43h1.78V87.2H49.25V84.14h1.26l4.61-13.86h4.47L64.1,84.14h1.23V87.2H58.91Zm-3.39-5.29h3.41l-1.72-5.5Z"/><polygon class="cls-1" points="67.99 84.14 69.56 84.14 69.56 73.35 67.99 73.35 67.99 70.28 74.95 70.28 79.94 82.49 84.57 70.28 91.64 70.28 91.64 73.35 90.06 73.35 90.06 84.14 91.61 84.14 91.61 87.2 85.29 87.2 85.29 84.14 86.45 84.14 86.45 74.41 81.38 87 78.24 87 73.09 74.75 73.09 84.14 74.35 84.14 74.35 87.2 67.99 87.2 67.99 84.14"/><path class="cls-1" d="M94.3,70.28h7.81a6.87,6.87,0,0,1,2.4.41,6.06,6.06,0,0,1,1.89,1.1,5,5,0,0,1,1.24,1.6,4.15,4.15,0,0,1,.44,1.88,6.71,6.71,0,0,1-.35,2.22,4.58,4.58,0,0,1-1.09,1.79,5.2,5.2,0,0,1-1.86,1.2,7.39,7.39,0,0,1-2.67.44H99.76v3.22h1.55V87.2h-7V84.14h1.75V73.35H94.3Zm5.46,3.07V77.9h1.53a3.38,3.38,0,0,0,2-.54,1.94,1.94,0,0,0,.75-1.7,2.12,2.12,0,0,0-.71-1.69,3,3,0,0,0-2.06-.62Z"/><polygon class="cls-1" points="110.07 70.28 123.53 70.28 123.53 76.05 119.89 76.05 119.89 73.66 115.55 73.66 115.55 76.99 118.91 76.99 118.91 80.23 115.55 80.23 115.55 84.14 119.89 84.14 119.89 81.14 123.53 81.14 123.53 87.2 110.07 87.2 110.07 84.14 111.84 84.14 111.84 73.66 110.07 73.66 110.07 70.28"/><polygon class="cls-1" points="126.26 70.28 139.72 70.28 139.72 76.05 136.08 76.05 136.08 73.66 131.74 73.66 131.74 76.99 135.1 76.99 135.1 80.23 131.74 80.23 131.74 84.14 136.08 84.14 136.08 81.14 139.72 81.14 139.72 87.2 126.26 87.2 126.26 84.14 128.03 84.14 128.03 73.66 126.26 73.66 126.26 70.28"/><path class="cls-1" d="M155.13,79.6l4-2.78L155,74.33l3.76-3-4.31-2.2,3.54-3.3-4.46-1.9,3.3-3.54-4.57-1.57,3-3.77-4.67-1.25,2.77-4-4.75-.92,2.49-4.15-4.8-.6,2.19-4.31-4.83-.25,1.89-4.46-4.84.08,1.57-4.58-4.82.42,1.25-4.67-4.78.75.92-4.75-4.71,1.09.58-4.81L126.08,20l.26-4.84-4.52,1.74-.09-4.84-4.39,2-.42-4.82-4.24,2.34-.75-4.78-4.06,2.64-1.1-4.72-3.86,2.91-1.42-4.62L97.84,6.26,96.1,1.74,92.68,5.16,90.63.78,87.45,4.43,85.1.2,82.19,4.06,80,.68,79.55,0h0L76.91,4.06,74,.19,71.65,4.43,68.47.77l-2,4.39L63,1.74,61.26,6.26,57.61,3.08,56.19,7.71,52.32,4.8,51.23,9.52,47.17,6.88l-.75,4.78L42.18,9.32l-.42,4.82-4.39-2-.09,4.83L32.76,15.2,33,20l-4.63-1.42L29,23.43l-4.71-1.09.92,4.75-4.78-.75L21.65,31l-4.82-.42,1.57,4.58-4.84-.08,1.89,4.45-4.83.26,2.19,4.31-4.8.6,2.49,4.15-4.75.92,2.77,4L3.85,55l3,3.76L2.32,60.34l3.3,3.54-4.46,1.9,3.54,3.3L.39,71.28l3.76,3L0,76.82,4,79.6,0,82.38l4.15,2.49-3.76,3,4.31,2.2-3.54,3.3,4.46,1.89-3.3,3.54,4.57,1.58-3,3.77,4.67,1.25-2.77,4,4.75.92L8,114.49l4.8.59-2.19,4.32,4.83.25-1.89,4.46L18.4,124l-1.57,4.57,4.82-.42-1.25,4.68,4.78-.75-.92,4.75L29,135.77l-.58,4.8L33,139.16,32.76,144l4.52-1.74.09,4.84,4.39-2,.42,4.82,4.24-2.35.75,4.78,4.07-2.63,1.09,4.72,3.86-2.91,1.42,4.62,3.65-3.17L63,157.46,66.43,154l2,4.38,3.18-3.65L74,159l2.91-3.86,2.64,4.06,2.64-4.06L85.1,159l2.35-4.23,3.18,3.65L92.68,154l3.42,3.43,1.73-4.52,3.66,3.17,1.42-4.63,3.86,2.91,1.09-4.71,4.06,2.63.76-4.78,4.24,2.35.42-4.82,4.39,2,.09-4.84,4.52,1.73-.26-4.83,4.63,1.41-.58-4.8,4.71,1.09-.92-4.76,4.78.76-1.25-4.68,4.82.42L140.7,124l4.84.08-1.89-4.46,4.83-.25-2.19-4.32,4.8-.59-2.49-4.15,4.75-.92-2.77-4,4.67-1.25-3-3.77,4.57-1.57-3.3-3.55,4.46-1.89-3.54-3.3,4.31-2.2-3.76-3,4.15-2.49Zm-75.58,69a69,69,0,1,1,69-69,69.08,69.08,0,0,1-69,69"/><polygon class="cls-1" points="123.85 43.6 125.2 40.96 123.1 38.86 126.03 39.33 127.38 36.68 127.84 39.61 130.77 40.08 128.13 41.42 128.59 44.35 126.5 42.26 123.85 43.6"/><polygon class="cls-1" points="79.55 23.26 78.63 20.44 75.67 20.44 78.07 18.69 77.15 15.87 79.55 17.62 81.95 15.87 81.03 18.69 83.43 20.44 80.47 20.44 79.55 23.26"/><polygon class="cls-1" points="34.51 44.34 31.86 42.99 29.77 45.09 30.23 42.16 27.59 40.81 30.52 40.34 30.98 37.41 32.33 40.06 35.26 39.59 33.16 41.69 34.51 44.34"/><polygon class="cls-1" points="106.07 29.05 106.16 26.08 103.36 25.09 106.21 24.25 106.3 21.29 107.97 23.74 110.82 22.9 109.01 25.25 110.68 27.7 107.89 26.7 106.07 29.05"/><polygon class="cls-1" points="53.32 28.96 51.28 26.8 48.6 28.07 50.03 25.47 47.99 23.31 50.91 23.86 52.33 21.26 52.71 24.2 55.62 24.75 52.94 26.02 53.32 28.96"/><path class="cls-1" d="M79.55,147.44a67.84,67.84,0,0,1-48-115.81,67.84,67.84,0,1,1,95.94,95.94A67.42,67.42,0,0,1,79.55,147.44Zm0-134.26A66.42,66.42,0,1,0,146,79.6,66.49,66.49,0,0,0,79.55,13.18Z"/><polygon class="cls-1" points="31.88 57.81 15.29 57.81 16.69 54.21 31.88 54.21 31.88 57.81"/><polygon class="cls-1" points="127.22 57.81 143.82 57.81 142.41 54.21 127.22 54.21 127.22 57.81"/><path class="cls-1" d="M79.54,127.23c-19.06,0-35.36-10.87-42-26.25h84.05c-6.66,15.38-23,26.25-42,26.25"/><path class="cls-1" d="M116.33,120.25a54.35,54.35,0,0,1-36.77,13.86A54.34,54.34,0,0,1,42.8,120.25,46.73,46.73,0,0,1,29.94,101h4.29c6.49,17.11,24.36,29.44,45.33,29.44s38.85-12.33,45.33-29.44h4.29a46.61,46.61,0,0,1-12.85,19.27"/><polygon class="cls-1" points="124.43 114.62 125.78 117.27 123.68 119.36 126.61 118.9 127.96 121.55 128.43 118.61 131.35 118.15 128.71 116.8 129.18 113.87 127.08 115.97 124.43 114.62"/><polygon class="cls-1" points="80.7 135.82 79.78 138.64 76.81 138.64 79.21 140.38 78.3 143.2 80.7 141.46 83.1 143.2 82.18 140.38 84.58 138.64 81.61 138.64 80.7 135.82"/><polygon class="cls-1" points="34.8 114.74 32.16 116.09 30.06 113.99 30.53 116.92 27.88 118.27 30.81 118.73 31.28 121.66 32.62 119.02 35.55 119.48 33.46 117.39 34.8 114.74"/><polygon class="cls-1" points="107.22 128.89 107.31 131.86 104.51 132.86 107.36 133.69 107.45 136.66 109.12 134.21 111.97 135.04 110.16 132.69 111.83 130.24 109.03 131.24 107.22 128.89"/><polygon class="cls-1" points="54.19 130.12 52.15 132.27 49.47 131 50.89 133.61 48.85 135.77 51.77 135.22 53.2 137.82 53.57 134.88 56.49 134.33 53.81 133.06 54.19 130.12"/><polygon class="cls-1" points="31.89 100.98 15.3 100.98 16.71 104.58 31.89 104.58 31.89 100.98"/><polygon class="cls-1" points="127.23 100.98 143.83 100.98 142.42 104.58 127.23 104.58 127.23 100.98"/></g></g></svg>