<svg xmlns="http://www.w3.org/2000/svg" viewBox="0 0 107.16 58.8"><defs><style>.cls-1{fill:#064c76;}</style></defs><title>stamp_sign</title><g id="Layer_2" data-name="Layer 2"><g id="Layer_1-2" data-name="Layer 1"><path class="cls-1" d="M6.86,12.78a1.23,1.23,0,0,0,.39.06Z"/><path class="cls-1" d="M79.67,2.11l.6-.06L80.8,2c.31-.07.7-.13,1.11-.18h0L82,1.62l.28.14a13.25,13.25,0,0,1,2,0h.36a13.2,13.2,0,0,1,3.09.14A5.88,5.88,0,0,0,88.47.09c-1.1.72-2,.75-3.54-.09l-.62,0h-.13c.08.27.12.52,0,.68-.29.31-1.69.07-1.54.65-1.05-.69-.19-.65-.1-1a1.18,1.18,0,0,0,0-.2,27.46,27.46,0,0,1-2.8.08l-.33,0-.67.09c-.18.52-.77.86-.22,1.84Z"/><path class="cls-1" d="M4.66,13.28A6.49,6.49,0,0,0,4,14c.8.17,1.6.33,2.4.46C6,14,5.09,13.86,4.66,13.28Z"/><path class="cls-1" d="M9.74,15a64.51,64.51,0,0,0,14.1-.06l.56-.06c4.47-1,8.36-1.35,12.85-2.35l.31-.07.3-.08.58-.14C40,11.94,41.83,10.81,43.1,11l.31-.09,1.75-.48.31-.09a7.73,7.73,0,0,1,4-1.15l.32-.09,2.62-.76L53,8.16c1.33.19,2.71-.9,4.06-1.16l.6-.18A143.83,143.83,0,0,1,78.08,2.3a.13.13,0,0,1,.14-.06l0,0,.26,0A2.78,2.78,0,0,1,78,.5C68.31,1.75,58.78,4.66,49.24,7.41l-.58.17c-1.23-.15-2.12.9-2.88.83l-.58.16-2.32.64-.58.15a18.75,18.75,0,0,1-3.47.91l-.58.14q-.87.23-1.74.42l-.59.15c-.85.86-1.86.45-2.89.63l-.59.12-.59.13c-2.65,0-5.45,1.65-7.72,1.15l-.51.1-.59.06a62.44,62.44,0,0,1-15.44-.28c-.06.13-.23.36-.28.47C8.43,13.61,9.58,13.63,9.74,15Z"/><path class="cls-1" d="M98.82,2.54a2.09,2.09,0,0,0-.36-1.09c.23,0,.29-.06.31-.16-1.53-.29-3-.63-4.59-.9-1,.15-1.85.36-1.81,1.12-.88-.24-1.74-.45-2.58-.65a4.8,4.8,0,0,1-.18.81l.23,0C92.8,2.57,95.85,1.91,98.82,2.54Z"/><path class="cls-1" d="M6.91,14.57c.72.12,1.43.22,2.14.3-.51-.3-.9-.77-1.55-.8A2.45,2.45,0,0,0,6.91,14.57Z"/><path class="cls-1" d="M105.35,14.92c-.33-.29-.54-.14-.78,0l.76.23A1.83,1.83,0,0,1,105.35,14.92Z"/><path class="cls-1" d="M2,22.4l-.19,0a1.58,1.58,0,0,1-.12.15c.11,0,0,.18,0,.27S1.84,22.69,2,22.4Z"/><path class="cls-1" d="M8.78,25.59c4.46.7,8.31-.09,13,.42a3.66,3.66,0,0,1,.58,0c2.07-.16,4.13-.41,6.19-.72a5,5,0,0,0,.6-.13C36,23.5,42.28,22.51,48.86,20.47l.29-.09.3-.11c.85-1.33,1.86-.92,3.44-1l.58-.16c6.74-2,13.49-3.89,20.29-5.16l.58-.11c1.37-1.37,2.87-1,4.69-.73l.58-.06a70.22,70.22,0,0,1,7.53-.54c.11,0,.22,0,.33,0,1.73-.56,3.6.49,5.57.33a4.34,4.34,0,0,0,.55-.07c1.79,1.1,3.65,0,5,.68l.57.11c.58.11,1.15.23,1.72.36a1.27,1.27,0,0,1,.22-.28.48.48,0,0,1,.21.38l1.33.33c-.06-.52-.43-.87-.19-1.32.31-.29.06.67.27.6a.64.64,0,0,0,.27-.31h0c.06-.19.11-.38.17-.57-1.51-.42-3-.77-4.51-1.05-.18,0-.38-.06-.55-.09a3.22,3.22,0,0,1-.42.16l.36.17c0,.12-.38-.07-.29.11a1.64,1.64,0,0,1-.38-.21l-.23,0c-.06.14.07.31,0,.45a4.15,4.15,0,0,0-.51-.28c.87.66-.78.25-.54.93a1,1,0,0,1-.08-1.28c-.55-.19-1.1-.46-1.71-.62L93.8,11l-.55,0-.57,0c-2-.09-4.38.1-6.15-.16H86.2c-2.35.07-4.68.26-7,.55l-.39,0c-1.68.54-3.1,1.14-4.91.77l-.59.11c-6.77,1.28-13.48,3.21-20.2,5.16l-.35.1a119.76,119.76,0,0,1-25,6.06l-.61.09c-1.3.18-2.6.33-3.91.44l-.61.06C18,24.45,13.65,25.28,9.67,24a1.69,1.69,0,0,1-.31-.09c-1-.13-1.94-.28-2.91-.46a1.3,1.3,0,0,0,0,.13c-.24.16-.26,0-.29-.18l-.48-.1c-.27.18-.37,0-.58.06a1.06,1.06,0,0,1,.16-.15c-1.07-.22-2.15-.48-3.22-.77-.28.57.49-.18.11.52,1.38-.71.91.95,2.47.2a2.73,2.73,0,0,1-2.59.22c-.15-.05-.34.51-.52.58s.09-.74-.06-.85-.64.36-.94.44-.35-.15-.54-.21l0,.24a53.9,53.9,0,0,0,8.39,2Zm92.66-12.47c.39.23-.07.27,0,.42C101.22,13.36,101,13.05,101.44,13.12Zm-97,10.36c.22-.21.36-.23.44-.13C4.57,23.72,4.36,23.68,4.44,23.48Z"/><path class="cls-1" d="M34.91,35.14,35.5,35a29.69,29.69,0,0,0,4.66-1.07l.31-.08c.88-.22,1.75-.44,2.63-.68l.58-.15a7.23,7.23,0,0,0,2.58-.74l.53-.19c1.53-1.27,3.51-.94,5-1.34l.57-.17c4.72-1.37,9.45-2.76,14.18-3.94.19,0,.37-.1.56-.17,7.39-1.49,15.14-3.31,22.55-3.17.26-.33,1.07-.09.36,0l0,0,.7,0c.11-.35.71-.29,1-.37a.74.74,0,0,1-.42.4c.7,0,1.4.1,2.09.18l.54,0a54.66,54.66,0,0,1,10,1.71c.11-.1.22-.13.34.09l.44.12c.15-.26.27-.07.53,0,0-.33-.07-.51-.18-.59.61-.06.9-.1,1.26-.12,0-.18,0-.36,0-.54-.75-.24-1.5-.46-2.24-.66a.65.65,0,0,1-.19.09c-.11,0-.16-.09-.23-.2l-.4-.11c-.17.16-.37.46-.5.46s-.34-.34-.6-.41c-.93-.25-1.9,1-2.84.86-.73-.11-1.43-1.47-2.26-1.07.3-1.25.9-.47,1.46-.53a4,4,0,0,0,.82-.16,55.37,55.37,0,0,0-5.94-.74l-.55,0c-2.11-.61-4.94.59-7.14,0l-.36,0-.34,0a14.53,14.53,0,0,0-3,.1l-.48,0-.45.06c-.15,0-.29,0-.43.06-1.14-.49-1.51,1-2.54.49l-.58.07-.58.09-.31.06a2.34,2.34,0,0,0-.45-.07,3.73,3.73,0,0,0-.47,0c-3.38.9-6.74,1.66-10,2.4l-.3.08C60.71,26.3,56.15,27.65,51.59,29l-.58.17a4.28,4.28,0,0,1-4.28,1.24l-.34.07c-2.31.64-4.62,1.26-6.94,1.83l-.59.14a21.2,21.2,0,0,0-4.66,1l-.31.08C23,35.69,12.06,36.27.74,32.63l.15,1.8C12.51,38.17,23.77,37.45,34.91,35.14ZM96,22.77c0,.51,0,.83-.26.77a2.37,2.37,0,0,1-.09-.79Z"/><path class="cls-1" d="M97.44,33l-.6-.09c-1.41.08-2.5-1.3-4.12-.34h-.6c-9.24-.34-18.3,1.44-27.32,3.82l-.31.08c-1.54.09-2.92,1.18-4.63,1.28l-.31.09L59,38l-7.7,2.19-.57.17a17.35,17.35,0,0,1-4,1.15l-.56.16-.56.16-.6.16-2,.53-.34.09c-4.52,1.31-8.89,1.66-13.24,2.76l-.59.08-1.67.21-.56.06c-2.51-.19-5.27,2-7.81.5-.18,0-.42-.05-.61-.05A55.72,55.72,0,0,1,1.61,43.5c0,.6.09,1.2.14,1.8a55.2,55.2,0,0,0,15.8,2.6h.29a51.13,51.13,0,0,1,7.67-.2l.6,0c5.94-.45,11.34-2.79,16.7-3.34l.59-.14,1.73-.46.58-.16.56-.24.57-.22a21.56,21.56,0,0,1,4.49-1.4l.36-.09c4.51-1.1,9.07-1.69,13.26-3.49l.58-.15c13.62-3.56,27.36-5.68,41.63-1.09L107,35.1A53,53,0,0,0,97.44,33Z"/><path class="cls-1" d="M12.46,57.78a4,4,0,0,0,0-1.23l-1.71-.24c.27.68.66,1.4.46,1.8l.19.08,1,.13.61.07.25,0a.55.55,0,0,0,0-.31C13,57.93,12.66,58,12.46,57.78Z"/><path class="cls-1" d="M7.16,55.64c0,.17-.22.35.19.57a1.49,1.49,0,0,1-.47.06c0,.12.59.43,0,.34-.79-.55,0-.67,0-1-.66-.15-1.32-.32-2-.5a2.19,2.19,0,0,1-.36,1c.62.35,2,.91,2.11.6.4.25.16.2,0,.3a1.39,1.39,0,0,0,.59.15c0,.13,0,.22,0,.3.62.15,1.25.27,1.87.39l0,0c.09-.17-.47-.52-.5-.71s.39,0,.46,0-.43-.4-.4-.48.38,0,.49-.09.11-.24,0-.41Z"/><path class="cls-1" d="M2.47,54.36l0,.38.91.17a1.13,1.13,0,0,1,0-.26C3.1,54.56,2.79,54.47,2.47,54.36Z"/><path class="cls-1" d="M91.56,44.22c-.2-.32-.19.2-.63.47.68-1-.68-.36-.22-1.16a2.37,2.37,0,0,1-.49-.09c-2.27.05-4.57.21-6.93.47L83,44a22.85,22.85,0,0,1-5.77,1.67,1.35,1.35,0,0,1,.12.12,2.16,2.16,0,0,1,.87.49c1.79-.29,3.56-.53,5.3-.71l.32,0a60.15,60.15,0,0,1,7.42-.56,4.55,4.55,0,0,1,.41-.29C91.47,44.54,91.59,44.36,91.56,44.22Z"/><path class="cls-1" d="M77.48,46.21a1.33,1.33,0,0,1-.44-.56c-2.75.45-5.52.6-8.2,1l-.56.12-2.53.55-.5.11c-1.45-.26-3.31.87-4.83,1.19l-.51.15-1.82.52-.58.17c-.95.22-1.89.45-2.84.69l-.59.19c-.77.11-2.15,1.2-3.39.87l-.57.15c-5.12,1.42-10.26,2.94-15.37,4l-.31.06-.58.11-.32,0a16.85,16.85,0,0,1-4.07.65l-.32,0c-.49.07-1,.13-1.48.18l-.59.07a13.92,13.92,0,0,0-2.95.26l-.6,0-.59,0-.6,0c-2.46-.3-5,.6-7.4.07a3.24,3.24,0,0,1,.53.51c.2.31-.21.43,0,.77a1.27,1.27,0,0,0,.26.26c4.28.27,8.37.51,12.65-.31l.59-.07.59-.08.59-.08c.68-.85,2.17-.48,2.93-.47l.6-.1,1.76-.33.59-.13c4.95-.54,9.56-2.11,14.07-3.57l.55-.18c2.3-.76,4.73-1,7-2l.55-.12.31-.09.3-.09L61,50.31c.18-.06.38-.14.56-.19a4.14,4.14,0,0,1,3.29-.91l.55-.14c1.1-.3,2.21-.59,3.32-.87l.31-.07Q73.6,47,78,46.27s0-.08,0-.13S77.56,46.39,77.48,46.21Z"/><path class="cls-1" d="M102.71,44.58a51.26,51.26,0,0,0-11-1.16.88.88,0,0,0,.15.53c.36.39,1,.06,1.48.22s.66.56,1,.83c1,.06,1.92.15,2.88.28a.9.9,0,0,1,.59-.12c.54-.41.44-1.07,1-1.21.44,0-.44.5-.25.61s.83-.17,1.27-.32c.11.93.85,1.25,1.59,1.64l.29,0c.16-.16.11-.65.52-.69a.78.78,0,0,0,.44.75,15.53,15.53,0,0,0,2.72-.11,1,1,0,0,0,.67-.44c-.93-.26-1.86-.5-2.78-.71Z"/></g></g></svg>